name C:\Users\u0101727\Documents\MyRepositories\paper-ad\predictivesimulations_2d/Results/PredSim_2D/IK_c3.mot
datacolumns 11
datarows 17
range 0.00000000 0.15349858
endheader
time	pelvis_tilt	pelvis_tx	pelvis_ty	hip_flexion_l	hip_flexion_r	knee_angle_l	knee_angle_r	ankle_angle_l	ankle_angle_r	lumbar_extension	
          0.00000000	        -15.12042338	          0.00000000	          0.88365423	          0.94361719	         38.05739410	        -16.23119179	        -10.56684797	          5.78097847	         13.83724009	          9.61940188	
          0.00959366	        -15.08237687	          0.01477811	          0.88286864	          0.84995830	         37.57263532	        -17.72505032	         -9.96145335	          4.58050531	         13.38888806	          9.71629935	
          0.01918732	        -15.03328122	          0.02981966	          0.88203224	          0.83504267	         36.99268705	        -19.38640183	         -9.64205296	          3.27616820	         12.88843654	          9.82623595	
          0.02878098	        -14.97569335	          0.04510758	          0.88116841	          0.90610750	         36.24948938	        -21.21211555	         -9.72917783	          1.84792986	         12.33381737	          9.95318404	
          0.03837465	        -14.91782408	          0.06045601	          0.88040404	          1.06778980	         35.38619980	        -23.18360877	        -10.04316978	          0.38114474	         11.76435905	         10.08771560	
          0.04796831	        -14.87064799	          0.07552426	          0.87996855	          1.34694523	         34.52800238	        -25.20846725	        -10.32312316	         -0.90256028	         11.21399884	         10.20658674	
          0.05756197	        -14.84273032	          0.09006520	          0.88012353	          1.77183663	         33.71214024	        -27.14647766	        -10.58115495	         -1.90515102	         10.68262307	         10.29588076	
          0.06715563	        -14.83641595	          0.10401582	          0.88102469	          2.33837279	         32.94106858	        -28.93498984	        -10.81212937	         -2.65602495	         10.18489186	         10.35445551	
          0.07674929	        -14.84701659	          0.11745937	          0.88263129	          3.02977813	         32.19626229	        -30.59470792	        -11.00405671	         -3.16461453	          9.73709992	         10.38845405	
          0.08634295	        -14.86793952	          0.13052005	          0.88473361	          3.82551048	         31.45660755	        -32.15474512	        -11.14802265	         -3.44366606	          9.35074248	         10.40490393	
          0.09593662	        -14.89381909	          0.14330536	          0.88709913	          4.71000779	         30.70530219	        -33.63268774	        -11.23722161	         -3.50874644	          9.03209693	         10.40912114	
          0.10553028	        -14.92121577	          0.15588956	          0.88954517	          5.67123779	         29.93290075	        -35.03700057	        -11.26974130	         -3.37488236	          8.78278612	         10.40430254	
          0.11512394	        -14.94823537	          0.16831964	          0.89194813	          6.70019002	         29.13487602	        -36.36900785	        -11.24602187	         -3.05837667	          8.60178704	         10.39220672	
          0.12471760	        -14.97391659	          0.18062565	          0.89422878	          7.78946423	         28.30968097	        -37.62559822	        -11.16806514	         -2.57597350	          8.48646665	         10.37384380	
          0.13431126	        -14.99777038	          0.19282791	          0.89633673	          8.93288007	         27.45768855	        -38.80189255	        -11.03934917	         -1.94454284	          8.43308756	         10.34982913	
          0.14390492	        -15.01953000	          0.20494149	          0.89823955	         10.12488565	         26.58054684	        -39.89180680	        -10.86472065	         -1.18103411	          8.43711275	         10.32061415	
          0.15349858	        -15.03902419	          0.21697880	          0.89991627	         11.36012872	         25.68084981	        -40.88856283	        -10.65021013	         -0.30261602	          8.49340659	         10.28660509	
